<svg xmlns="http://www.w3.org/2000/svg" width="595.275" height="180.223" viewBox="0 0 595.275 180.223"><g transform="translate(0.081 -0.011)"><rect width="595.275" height="60.077" transform="translate(-0.081 120.157)" fill="#97c34f"/><rect width="595.275" height="120.145" transform="translate(-0.081 0.011)" fill="#0064b3"/><rect width="297.572" height="60.142" transform="translate(148.773 60.015)" fill="#1a1818"/><rect width="297.572" height="60.141" transform="translate(148.773 60.009)" fill="none"/><path d="M389.149,120.157h18.215c4.027-1.634,7.274-4.626,10.133-9.171h.222c0,3.019.332,6.038.448,9.171h18.665a73.433,73.433,0,0,1-1.109-13.829V84.288c0-15.742-9.883-22.678-22.388-24.2H400.37a56.379,56.379,0,0,0-16.283,3.86l.336,13.866a38.273,38.273,0,0,1,18.8-4.433c7.358,0,13.358,2.16,13.477,10.225a59.621,59.621,0,0,0-9.514-.795c-10.869,0-30.465,2.158-30.465,20.225C376.725,112.129,381.955,117.687,389.149,120.157Zm18.944-26.441c3.058,0,6.005.225,8.611.341,0,6.934-4.875,13.976-12.572,13.976-4.758,0-8.379-2.385-8.379-6.479C395.753,95.873,401.186,93.716,408.093,93.716Z" fill="#fff" fill-rule="evenodd"/><path d="M337.675,103.264c0,4.09-4.077,4.776-8.268,4.776a50.385,50.385,0,0,1-19.133-4.09l-1.131,14.88c1.6.514,3.217.954,4.9,1.327h29.206c8.33-2.3,14.812-7.572,14.812-18.256,0-22.493-30.349-15.22-30.349-24.427,0-3.295,4.982-4.091,9.4-4.091,5.094,0,11.547,1.37,15.854,3.979l1.584-14.209a48.864,48.864,0,0,0-13.484-3.069H328.885c-10.28,1.369-20.2,7.119-20.2,18.865C308.684,100.314,337.675,93.271,337.675,103.264Z" fill="#fff"/><path d="M255.681,120.157V93.3h.174l18.327,26.859h19.707L270.365,88.522l21.372-28.439H273.583l-17.9,25.031V60.084H239.888v60.073Z" fill="#fff"/><path d="M170.678,120.157H188.89c4.027-1.634,7.273-4.626,10.128-9.171h.23c0,3.019.327,6.038.443,9.171h18.671a72.936,72.936,0,0,1-1.108-13.829V84.288c0-15.742-9.885-22.678-22.391-24.2H181.9a56.415,56.415,0,0,0-16.285,3.86l.34,13.866a38.256,38.256,0,0,1,18.8-4.433c7.357,0,13.362,2.16,13.473,10.225a59.659,59.659,0,0,0-9.513-.795c-10.872,0-30.462,2.158-30.462,20.225C158.253,112.129,163.482,117.687,170.678,120.157Zm18.945-26.441c3.055,0,6,.225,8.6.341,0,6.934-4.87,13.976-12.567,13.976-4.759,0-8.38-2.385-8.38-6.479C177.281,95.873,182.71,93.716,189.623,93.716Z" fill="#fff" fill-rule="evenodd"/><path d="M262.413,142.767l-.372-.186a14.85,14.85,0,0,0-6.439-1.857c-1.889,0-3.158.681-3.158,1.7q0,1.254,3.436,2.508l1.672.619c4.087,1.517,5.821,3.468,5.821,6.657a5.442,5.442,0,0,1-2.292,4.551,9.637,9.637,0,0,1-5.975,1.7,15.328,15.328,0,0,1-5.573-1.146,10.943,10.943,0,0,1-1.888-.9v-4.551a22.772,22.772,0,0,0,3.4,1.827,10.61,10.61,0,0,0,3.9.805c2.137,0,3.189-.65,3.189-1.92,0-1.021-.712-1.641-2.848-2.384l-1.146-.4a21.16,21.16,0,0,1-3.5-1.517,7.233,7.233,0,0,1-1.981-1.548,5.7,5.7,0,0,1-1.394-3.932,5.152,5.152,0,0,1,2.168-4.365,9.539,9.539,0,0,1,5.82-1.642,18.075,18.075,0,0,1,7.152,1.642Zm-11.208,19.721.217.031a20.723,20.723,0,0,0,2.631.155c1.672,0,2.508-.464,2.508-1.424,0-.836-.65-1.269-1.95-1.269a8.238,8.238,0,0,0-1.981.278l.4-1.486a7.67,7.67,0,0,1,2.538-.4c2.323,0,3.871,1.145,3.871,2.848,0,2.012-2.075,3.313-5.3,3.313a14.852,14.852,0,0,1-2.941-.248Z" fill="#1a1818"/><path d="M284.5,137.092l9.329,21.181h-4.309l-2.192-5.154h-9.39l-2.042,5.154h-4.278l8.709-21.181Zm-5.322,12.918H286l-3.568-8.384Z" fill="#1a1818" stroke="#1a1818" stroke-miterlimit="10" stroke-width="0.85"/><path d="M312.276,137.092a7.074,7.074,0,0,1,4.854,1.653,5.469,5.469,0,0,1,1.875,4.306,5.39,5.39,0,0,1-.93,3.146,6.155,6.155,0,0,1-2.76,2.115,6.113,6.113,0,0,1,1.8,1.486,18.969,18.969,0,0,1,1.951,3.169q1.935,3.851,2.873,5.306h-4.551a25.232,25.232,0,0,1-1.271-2.229,48.365,48.365,0,0,0-2.57-4.555,6.158,6.158,0,0,0-1.572-1.668,3.11,3.11,0,0,0-1.739-.493h-1.482v8.945h-4.082V137.092Zm-.922,9.037a3.681,3.681,0,0,0,2.517-.8,2.773,2.773,0,0,0,.915-2.2,2.611,2.611,0,0,0-.907-2.176,4.074,4.074,0,0,0-2.586-.72h-2.54v5.9Z" fill="#1a1818" stroke="#1a1818" stroke-miterlimit="10" stroke-width="0.85"/><path d="M337.148,137.092V157.47a7.871,7.871,0,0,1-1.814,5.435,6.123,6.123,0,0,1-4.809,2.04h-.4a2.7,2.7,0,0,1-.4-.031l-.288-3.532q3.628,0,3.629-4.261V137.092Z" fill="#1a1818" stroke="#1a1818" stroke-miterlimit="10" stroke-width="0.85"/></g></svg>