<svg width="659" height="176" viewBox="0 0 659 176" fill="none" xmlns="http://www.w3.org/2000/svg">
<g clip-path="url(#clip0_212_229)">
<path d="M175.899 175.97C166.184 175.97 158.308 168.091 158.308 158.371V104.114L193.49 68.9161V158.371C193.49 168.091 185.614 175.97 175.899 175.97Z" fill="#213238"/>
<path d="M590.205 35.238C558.112 35.938 531.326 58.1367 523.64 88.015H574.463V61.6165L618.441 105.614L574.463 149.612V123.213H523.64C531.326 153.081 558.112 175.28 590.205 175.99C628.336 175.15 658.99 143.972 658.99 105.614C658.99 67.2562 628.336 36.078 590.205 35.238Z" fill="white"/>
<path d="M158.308 79.2255V52.837H140.717L158.308 0H202.286L177.368 35.238L202.286 35.228L158.308 79.2255Z" fill="#F7BE00"/>
<path d="M140.717 79.2255C140.717 54.9269 121.028 35.238 96.7401 35.238C86.8352 35.238 77.6999 38.5179 70.3537 44.0375C63.0075 38.5179 53.8722 35.238 43.9673 35.238C19.6898 35.238 0 54.9269 0 79.2255V176H35.1818V79.2255C35.1818 74.3658 39.1198 70.426 43.9773 70.426C48.8348 70.426 52.7728 74.3658 52.7728 79.2255V158.401C52.7728 168.12 60.6487 176 70.3637 176C80.0787 176 87.9546 168.12 87.9546 158.401V79.2255C87.9546 74.3658 91.8926 70.426 96.7501 70.426C101.608 70.426 105.546 74.3658 105.546 79.2255V158.401C105.546 168.12 113.421 176 123.136 176C132.851 176 140.727 168.12 140.727 158.401V79.2255H140.717Z" fill="#213238"/>
<path d="M468.628 88.015H435.785C426.07 88.015 418.194 95.8946 418.194 105.614C418.194 115.333 426.07 123.213 435.785 123.213H468.628V140.772H435.035C416.335 139.952 401.423 124.523 401.423 105.614C401.423 86.7051 416.335 71.276 435.035 70.456H486.229C495.954 70.456 503.83 62.5765 503.83 52.847C503.83 43.1176 495.954 35.238 486.229 35.238H435.035C396.905 36.078 366.251 67.2562 366.251 105.614C366.251 143.972 396.905 175.15 435.035 175.99H503.82V88.015H468.618H468.628Z" fill="white"/>
<path d="M313.458 88.015H280.615C270.9 88.015 263.024 95.8946 263.024 105.614C263.024 115.333 270.9 123.213 280.615 123.213H313.458V140.772H279.866C261.165 139.952 246.253 124.523 246.253 105.614C246.253 86.7051 261.165 71.276 279.866 70.456H331.059C340.784 70.456 348.66 62.5765 348.66 52.847C348.66 43.1176 340.784 35.238 331.059 35.238H279.866C241.735 36.078 211.081 67.2562 211.081 105.614C211.081 143.972 241.735 175.15 279.866 175.99H348.65V88.015H313.448H313.458Z" fill="#213238"/>
</g>
<defs>
<clipPath id="clip0_212_229">
<rect width="659" height="176" fill="white"/>
</clipPath>
</defs>
</svg>
