<svg width="133" height="26" viewBox="0 0 133 26" fill="none" xmlns="http://www.w3.org/2000/svg">
<path d="M21.0781 13.8876C21.0781 9.82033 24.0892 7.16309 28.0293 7.16309C31.9694 7.16309 34.9531 9.82033 34.9531 13.8876C34.9531 17.9548 31.9395 20.5595 28.0293 20.5595C24.1191 20.5595 21.0781 17.9548 21.0781 13.8876ZM28.0293 9.90047C25.8077 9.90047 24.5923 11.601 24.5923 13.8074C24.5923 16.0139 25.8077 17.7344 28.0293 17.7344C30.1961 17.7344 31.4638 16.0064 31.4638 13.7999C31.4638 11.5935 30.1961 9.90047 28.0293 9.90047V9.90047Z" fill="#183667"/>
<path d="M43.4614 9.95306C41.3743 9.95306 40.6595 11.7062 40.6595 13.86V20.2665H37.2773V7.40351H40.6595L40.6346 9.34197H40.7143C41.4017 7.98705 42.7068 7.16309 44.5448 7.16309C48.2184 7.16309 49.1449 9.55485 49.1449 12.6379V20.2665H45.7602V13.3817C45.7602 11.4733 45.419 9.95306 43.4614 9.95306Z" fill="#183667"/>
<path d="M62.9626 16.3318L63.9115 18.8363C63.6475 19.0742 62.3275 20.5644 58.9179 20.5644C55.4311 20.5644 52.1934 18.1451 52.1934 13.9451C52.1934 9.74507 55.5257 7.16797 58.9602 7.16797C62.1855 7.16797 63.4432 8.4703 63.7969 8.81591L62.8729 11.368C61.9213 10.4723 60.6593 9.98612 59.3562 10.013C57.3488 10.013 55.7349 11.4206 55.7349 13.7873C55.7349 16.154 57.3488 17.6943 59.543 17.6943C60.1741 17.7041 60.8008 17.5889 61.3876 17.3551C61.9743 17.1214 62.5095 16.7736 62.9626 16.3318V16.3318Z" fill="#843494"/>
<path d="M77.7054 12.6378V20.2664H74.3232V13.3816C74.3232 11.4682 73.9795 9.95303 72.0244 9.95303C69.9348 9.95303 69.2225 11.7062 69.2225 13.86V20.2664H65.8652V1.92871H69.2225V9.34194H69.2748C69.9622 7.98702 71.2673 7.16305 73.1078 7.16305C76.7814 7.16305 77.7054 9.55482 77.7054 12.6378Z" fill="#843494"/>
<path d="M84.2584 20.5595C81.7678 20.5595 79.7754 19.2021 79.7754 16.5198C79.7754 13.8375 82.393 12.7981 85.0355 12.6128L88.1013 12.3999V12.0543C88.1013 10.4064 87.018 9.635 85.2472 9.635C83.5561 9.635 82.1539 10.2736 81.601 10.6994L80.5699 8.518C82.0843 7.63712 83.8015 7.17001 85.551 7.16309C87.8249 7.16309 89.12 7.74913 90.0714 8.65074C91.0228 9.55235 91.4711 10.7244 91.4711 12.9083V20.2715H88.2234L88.1711 18.7838C87.6431 19.708 86.1612 20.5595 84.2584 20.5595ZM83.1501 16.4121C83.1501 17.5015 83.9695 18.2454 85.3692 18.2454C85.9032 18.2407 86.4287 18.1111 86.9042 17.8668C87.3797 17.6225 87.7922 17.2702 88.1088 16.8379V14.4786L85.81 14.6114C84.0218 14.7116 83.1501 15.3226 83.1501 16.4121V16.4121Z" fill="#843494"/>
<path d="M97.7381 7.40404L97.6858 9.47524H97.763C97.9913 8.81393 98.4147 8.23836 98.9767 7.82533C99.5388 7.4123 100.213 7.18146 100.909 7.16362C101.37 7.14948 101.83 7.23488 102.256 7.41406L102.019 10.3643H101.86C101.402 10.2534 100.932 10.1995 100.46 10.204C100.008 10.1831 99.5587 10.2892 99.1629 10.5103C98.767 10.7315 98.4401 11.059 98.2188 11.4563C97.8756 12.2447 97.7131 13.1006 97.7431 13.9607V20.287H94.3809V7.40404H97.7381Z" fill="#843494"/>
<path d="M108.97 19.8407C105.732 19.8407 102.992 17.767 102.992 13.6747C102.992 10.1134 105.483 7.16309 109.283 7.16309C111.002 7.16309 112.454 7.80172 113.353 9.18419H113.405L113.38 7.40351H116.735V17.6092C116.735 20.4268 116.155 22.0196 115.071 23.1641C113.988 24.3087 112.332 25.4182 109.256 25.4182C107.129 25.3912 105.058 24.7267 103.308 23.5098L104.708 21.143C105.528 21.7291 107.615 22.6582 109.253 22.6582C111.077 22.6582 112.03 22.0747 112.506 21.5162C112.982 20.9577 113.378 19.8933 113.378 18.4582V17.8221H113.326C112.456 19.1495 110.925 19.8407 108.97 19.8407ZM109.966 9.84788C107.744 9.84788 106.424 11.4958 106.424 13.6046C106.424 15.5731 107.692 17.1935 109.911 17.1935C112.342 17.1935 113.557 15.5731 113.557 13.6046C113.567 11.7237 112.192 9.84788 109.973 9.84788H109.966Z" fill="#843494"/>
<path d="M126.358 17.9548C128.076 17.9548 129.61 17.1835 130.218 16.6525L131.538 18.4858C130.826 19.2371 128.895 20.5595 125.777 20.5595C121.919 20.5595 119.053 18.1928 119.053 14.0479C119.053 9.90297 122.041 7.16309 125.685 7.16309C129.623 7.16309 132.001 9.76773 132.001 13.1964C132.001 13.86 131.949 14.9244 131.949 14.9244H122.552C122.871 16.9831 124.43 17.9548 126.358 17.9548ZM122.5 12.7255H128.631C128.579 11.318 128.051 9.6951 125.673 9.6951C123.663 9.68759 122.604 11.0976 122.5 12.7255Z" fill="#843494"/>
<path d="M11.0199 10.7216C16.9126 7.27298 18.9723 1.91091 19.057 1.68551L19.6871 0H15.884L15.5702 0.77889C15.5702 0.793917 14.9799 2.22146 13.0796 4.44794C11.7995 5.88555 10.2831 7.09107 8.59661 8.01179L6.17578 9.24649L10.4969 11.0347L11.0199 10.7216Z" fill="#843494"/>
<path d="M1.32498 14.2511C1.62883 14.2286 8.92619 13.8253 14.7466 20.7627C15.8361 22.1766 16.7246 23.7359 17.3866 25.396H21.1848C19.8523 20.9711 17.0584 17.1359 13.2648 14.5241C9.75643 11.9945 5.53971 10.6509 1.22287 10.6872L0 10.7023V14.3312L1.32498 14.2511Z" fill="#183667"/>
</svg>
