<?xml version="1.0" encoding="utf-8"?>
<!-- Generator: Adobe Illustrator 28.2.0, SVG Export Plug-In . SVG Version: 6.00 Build 0)  -->
<svg version="1.1" id="Layer_1" xmlns="http://www.w3.org/2000/svg" xmlns:xlink="http://www.w3.org/1999/xlink" x="0px" y="0px"
	 viewBox="0 0 2130.8 442.7" style="enable-background:new 0 0 2130.8 442.7;" xml:space="preserve">
<style type="text/css">
	.st0{fill:url(#SVGID_1_);}
	.st1{fill:url(#SVGID_00000044177715293051564050000014100416314927463054_);}
	.st2{fill:url(#SVGID_00000142862814860449474770000009299071973439280800_);}
	.st3{fill:url(#SVGID_00000175306697087236786610000011674910350020823734_);}
	.st4{fill:url(#SVGID_00000060724652653470498650000004728394228797616040_);}
	.st5{fill:url(#SVGID_00000016061835417308580060000006318075471769224834_);}
	.st6{fill:url(#SVGID_00000047744076556264777980000002790611026148892580_);}
	.st7{fill:url(#SVGID_00000181774447969806353640000015100958423397628077_);}
</style>
<g>
	
		<linearGradient id="SVGID_1_" gradientUnits="userSpaceOnUse" x1="4054.1306" y1="-1473.9225" x2="5299.7402" y2="-1473.9225" gradientTransform="matrix(1 0 0 1 0 1771.9475)">
		<stop  offset="0" style="stop-color:#7EC042"/>
		<stop  offset="1" style="stop-color:#2C99D5"/>
	</linearGradient>
	<path class="st0" d="M234.2,441.5c-11.7,0-21.3-9.6-21.3-21.3v-21.6c-50.3-8.9-87.6-53.1-87.6-104.6v-82.5l4.7-4.7h29.1v-31.1
		c0-11.7,9.5-21.3,21.3-21.3h1.2c11.7,0,21.3,9.6,21.3,21.3v31.1h64.7v-31.1c0-11.7,9.5-21.3,21.3-21.3h1.2
		c11.7,0,21.3,9.6,21.3,21.3v31.1H340l4.7,4.7V294c0,51.5-37.4,95.7-87.6,104.6v21.6c0,11.7-9.5,21.3-21.3,21.3H234.2L234.2,441.5z
		 M168.7,294c0,34.5,28.1,62.7,62.6,62.7h7.2c34.5,0,62.6-28.1,62.6-62.7v-43.7H168.8L168.7,294L168.7,294z"/>
	
		<linearGradient id="SVGID_00000137131931413841115100000007897012434359449269_" gradientUnits="userSpaceOnUse" x1="15.7801" y1="-1650.5153" x2="1261.4053" y2="-1650.5153" gradientTransform="matrix(1 0 0 1 0 1771.9475)">
		<stop  offset="0" style="stop-color:#7EC042"/>
		<stop  offset="1" style="stop-color:#2C99D5"/>
	</linearGradient>
	<path style="fill:url(#SVGID_00000137131931413841115100000007897012434359449269_);" d="M447.6,241.2c-10.8,0-20-8.6-20.9-19.5
		c-7.7-99.9-91.8-178.2-191.9-178.2s-184.4,78.3-192,178.2c-0.9,11-10.1,19.5-20.9,19.5c-5.9,0-11.4-2.4-15.5-6.8
		c-3.9-4.2-6-10.1-5.6-15.8C10.2,96.9,113,1.6,234.8,1.6s224.5,95.4,233.6,217.1c0.5,5.7-1.5,11.6-5.6,15.8
		C459,238.8,453.3,241.2,447.6,241.2L447.6,241.2z"/>
	
		<linearGradient id="SVGID_00000160175768486778116560000000659011316692141492_" gradientUnits="userSpaceOnUse" x1="12.3" y1="-1553.0667" x2="1257.9252" y2="-1553.0667" gradientTransform="matrix(1 0 0 1 0 1771.9475)">
		<stop  offset="0" style="stop-color:#7EC042"/>
		<stop  offset="1" style="stop-color:#2C99D5"/>
	</linearGradient>
	<path style="fill:url(#SVGID_00000160175768486778116560000000659011316692141492_);" d="M798.1,176.1v-34.2c0-5.1,4.1-9.2,9.2-9.2
		h18.5V81.4c0-5.1,4.1-9.2,9.2-9.2h38.6c5.1,0,9.2,4.1,9.2,9.2v51.3h42.8c5.1,0,9.2,4.1,9.2,9.2v34.2c0,5.1-4.1,9.2-9.2,9.2h-42.8
		V269c0,16.1,3.6,26.9,10.7,32.4c6,4.7,20.1,7.5,39.3,8.4c6.3,0.3,11.3,5.4,11.4,11.7l0.6,31.8c0.2,6.6-5.3,12.2-11.9,12.2
		c-35,0-61.5-6.9-79.7-20.7c-18.2-13.8-27.3-39-27.3-75.5v-83.7h-18.5C802.1,185.3,798.1,181.1,798.1,176.1L798.1,176.1z"/>
	
		<linearGradient id="SVGID_00000062184361472100878340000000184879083059637420_" gradientUnits="userSpaceOnUse" x1="15.7801" y1="-1523.7346" x2="1261.4053" y2="-1523.7346" gradientTransform="matrix(1 0 0 1 0 1771.9475)">
		<stop  offset="0" style="stop-color:#7EC042"/>
		<stop  offset="1" style="stop-color:#2C99D5"/>
	</linearGradient>
	<path style="fill:url(#SVGID_00000062184361472100878340000000184879083059637420_);" d="M526.5,248c0-33.5,11.9-62,35.7-85.4
		c23.7-23.4,52.7-35.1,86.7-35.1c34.1,0,63,11.7,86.7,35.1c23.7,23.4,35.7,51.9,35.7,85.4s-12,61.7-35.9,85.4
		c-23.9,23.7-52.7,35.6-86.4,35.6s-62.6-11.9-86.4-35.6C538.5,309.7,526.5,281.1,526.5,248z M601.4,200.7
		c-13.5,13.5-20.1,29.1-20.1,47.1s6.8,33.8,20.1,47.1c13.5,13.5,29.3,20.1,47.4,20.1s33.9-6.8,47.4-20.1
		c13.5-13.4,20.1-29.1,20.1-47.1s-6.8-33.8-20.1-47.1c-13.5-13.5-29.3-20.1-47.4-20.1C630.6,180.6,614.9,187.4,601.4,200.7z"/>
	
		<linearGradient id="SVGID_00000000193318362684831000000017784785717186117554_" gradientUnits="userSpaceOnUse" x1="19.2578" y1="-1523.7346" x2="1264.8409" y2="-1523.7346" gradientTransform="matrix(1 0 0 1 0 1771.9475)">
		<stop  offset="0" style="stop-color:#7EC042"/>
		<stop  offset="1" style="stop-color:#2C99D5"/>
	</linearGradient>
	<path style="fill:url(#SVGID_00000000193318362684831000000017784785717186117554_);" d="M973.6,248c0-33.5,11.9-62,35.7-85.4
		c23.7-23.4,52.7-35.1,86.7-35.1c34.1,0,63,11.7,86.7,35.1s35.7,51.9,35.7,85.4s-12,61.7-35.9,85.4c-23.9,23.7-52.7,35.6-86.4,35.6
		s-62.6-11.9-86.4-35.6C985.6,309.7,973.6,281.1,973.6,248z M1048.6,200.7c-13.5,13.5-20.1,29.1-20.1,47.1s6.8,33.8,20.1,47.1
		c13.5,13.5,29.3,20.1,47.4,20.1c18.2,0,33.9-6.8,47.4-20.1c13.5-13.4,20.1-29.1,20.1-47.1s-6.8-33.8-20.1-47.1
		c-13.5-13.5-29.3-20.1-47.4-20.1C1077.9,180.6,1062,187.4,1048.6,200.7z"/>
	
		<linearGradient id="SVGID_00000136407720111888447720000012451410628811984817_" gradientUnits="userSpaceOnUse" x1="22.7331" y1="-1523.9323" x2="1268.3162" y2="-1523.9323" gradientTransform="matrix(1 0 0 1 0 1771.9475)">
		<stop  offset="0" style="stop-color:#7EC042"/>
		<stop  offset="1" style="stop-color:#2C99D5"/>
	</linearGradient>
	<path style="fill:url(#SVGID_00000136407720111888447720000012451410628811984817_);" d="M1230.8,426.4l0.3-26.1
		c0.2-6.6,4.7-12.3,11-14.1c9.5-2.6,17.7-6.5,21.9-10.5c5.7-5.6,8.6-15.5,8.6-29.6V138.8c0-3.3,2.7-6,6-6h44.7c3.3,0,6,2.7,6,6
		v207.5c0,34.8-8.6,59.4-25.5,74c-14,12-33,19.1-57.2,21.2C1238.1,442.1,1230.8,435.1,1230.8,426.4L1230.8,426.4z M1272.6,83.1
		c0-15.8,12.8-28.5,28.4-28.5c15.8,0,28.4,12.8,28.4,28.5s-12.8,28.5-28.4,28.5C1285.2,111.5,1272.6,98.9,1272.6,83.1z"/>
	
		<linearGradient id="SVGID_00000070822603906257674240000017227105820416876180_" gradientUnits="userSpaceOnUse" x1="22.7331" y1="-1522.2343" x2="1268.3162" y2="-1522.2343" gradientTransform="matrix(1 0 0 1 0 1771.9475)">
		<stop  offset="0" style="stop-color:#7EC042"/>
		<stop  offset="1" style="stop-color:#2C99D5"/>
	</linearGradient>
	<path style="fill:url(#SVGID_00000070822603906257674240000017227105820416876180_);" d="M1375.1,249.5c0-33.2,11.7-61.2,35.3-84.3
		c23.4-23.1,52.1-34.7,85.7-34.7c35.6,0,64.5,11.9,87,35.7c22.5,23.9,33.8,52.8,33.8,86.7c0,3.6-0.3,8.9-0.9,15.5H1433
		c4.8,15,13.1,26.7,24.6,35c11.6,8.4,25.8,12.5,43.1,12.5c14.1,0,25.8-2.4,35.4-7.1c7.4-3.6,14.1-9,20.3-15.8
		c3.3-3.6,8.7-4.5,12.9-2.3l29.1,16.2c5.7,3.2,7.2,10.7,3.2,15.9c-24.3,30.8-57.9,46.1-100.8,46.1c-36.2,0-66-11.4-89.9-34.1
		C1387.1,312.4,1375.3,283.8,1375.1,249.5L1375.1,249.5z M1434.4,223.7H1557c-11.4-27-31.8-40.7-60.9-40.7
		c-13.5,0-25.8,3.8-36.9,11.3C1448,201.8,1439.8,211.5,1434.4,223.7L1434.4,223.7z"/>
	
		<linearGradient id="SVGID_00000173133165754435560000000015282924457402242695_" gradientUnits="userSpaceOnUse" x1="22.7331" y1="-1553.0667" x2="1268.3212" y2="-1553.0667" gradientTransform="matrix(1 0 0 1 0 1771.9475)">
		<stop  offset="0" style="stop-color:#7EC042"/>
		<stop  offset="1" style="stop-color:#2C99D5"/>
	</linearGradient>
	<path style="fill:url(#SVGID_00000173133165754435560000000015282924457402242695_);" d="M1649.2,176.1v-34.2
		c0-5.1,4.1-9.2,9.2-9.2h18.5V81.4c0-5.1,4.1-9.2,9.2-9.2h38.6c5.1,0,9.2,4.1,9.2,9.2v51.3h42.8c5.1,0,9.2,4.1,9.2,9.2v34.2
		c0,5.1-4.1,9.2-9.2,9.2h-42.8V269c0,16.1,3.6,26.9,10.7,32.4c6,4.7,20.1,7.5,39.3,8.4c6.3,0.3,11.3,5.4,11.4,11.7l0.6,31.8
		c0.2,6.6-5.3,12.2-11.9,12.2c-35,0-61.5-6.9-79.7-20.7c-18.2-13.8-27.3-39-27.3-75.5v-83.7h-18.5
		C1653.3,185.3,1649.2,181.1,1649.2,176.1L1649.2,176.1z"/>
</g>
</svg>
