<svg xmlns="http://www.w3.org/2000/svg" width="226.22" height="62.663" viewBox="0 0 226.22 62.663">
  <g id="Group_1" data-name="Group 1" transform="translate(-424.676 -1546.419)">
    <path id="Path_1" data-name="Path 1" d="M641.164,608.419l4.428-5.035a2.026,2.026,0,0,1,3.176.193l.948,1.2,2.339,3.128a1.173,1.173,0,0,1,.046,1.2l-9.631,15.237L656.4,609.594a2.575,2.575,0,0,1,4.061-.116l1.257,1.456L672.235,623.8a28.844,28.844,0,0,1-44.172-.419Z" transform="translate(-196.797 973.03)" fill="#00ab57"/>
    <path id="Path_2" data-name="Path 2" d="M606.413,531.819l-1.638,1.869A28.865,28.865,0,0,1,641.667,491.6L629.4,505.617l-5.237,5.984Z" transform="translate(-175 1060.76)" fill="#0098af"/>
    <path id="Path_3" data-name="Path 3" d="M762.335,527.762v0c0,.179,0,.359-.006.536,0,.029,0,.056,0,.083,0,.164-.008.328-.013.492a.228.228,0,0,1,0,.039c-.006.181-.015.365-.025.544a.522.522,0,0,0,0,.054c-.006.095-.012.187-.019.28-.01.152-.021.307-.035.459-.023.276-.05.549-.083.823-.008.073-.017.148-.027.222q-.02.182-.046.364c-.006.046-.012.091-.017.135-.023.168-.048.334-.075.5s-.05.32-.079.478-.058.326-.091.488c-.016.081-.031.162-.048.243-.029.146-.06.291-.091.436q-.052.243-.11.486c-.052.22-.106.438-.164.656q-.061.234-.127.468-.148.532-.316,1.053-.084.26-.173.521c-.056.166-.116.334-.175.5-.006.019-.013.039-.021.058-.058.156-.117.313-.177.469s-.133.337-.2.505a.029.029,0,0,1,0,.012c-.068.166-.137.328-.206.49s-.139.32-.21.478c-.1.214-.195.426-.3.634-.137.285-.28.567-.424.845-.083.16-.168.318-.255.476q-.39.711-.816,1.4a.3.3,0,0,1-.019.033c-.089.141-.179.281-.268.42s-.2.3-.3.449a.007.007,0,0,1,0,0c-.1.146-.2.293-.3.438l-1.57-1.953v-.008c.008-.008-.008.015,0,.008l-2.476-3.1-.393-.486-15.922-19.284a1.626,1.626,0,0,1-.114-1.913l9.992-15.524.131.069a28.843,28.843,0,0,1,15.58,25.622" transform="translate(-279.963 1050.303)" fill="#0098af"/>
    <path id="Path_4" data-name="Path 4" d="M888.779,485.149a3.608,3.608,0,0,0,2.132-1.3,3.771,3.771,0,0,0,.807-2.424,3.636,3.636,0,0,0-1.289-2.907,5.872,5.872,0,0,0-3.8-.986h-2.345V490.8h2v-5.431h.361l3.79,5.431h2.45Zm-2.493-1.522v-4.212H887q2.769,0,2.769,2.037,0,2.176-2.846,2.175Z" transform="translate(-393.535 1069.144)" fill="#002e46"/>
    <path id="Path_5" data-name="Path 5" d="M961.925,477.532v5.19H956.2v-5.19h-2V490.8h2v-6.2h5.726v6.2h2V477.532Z" transform="translate(-447.217 1069.145)" fill="#002e46"/>
    <path id="Path_6" data-name="Path 6" d="M1038.713,483.041v1.883h3.31a3.558,3.558,0,0,1-1.315,2.408,4.011,4.011,0,0,1-2.655,1,4.748,4.748,0,0,1-3.225-1.334,4.7,4.7,0,0,1-1.589-3.652,4.862,4.862,0,0,1,1.424-3.578,4.758,4.758,0,0,1,3.535-1.451,4.835,4.835,0,0,1,3.978,2.175l1.427-1.368a8.4,8.4,0,0,0-2.535-2.063,6.924,6.924,0,0,0-7.855,11.133,6.469,6.469,0,0,0,4.771,2.01,6.015,6.015,0,0,0,4.7-2.079,5.629,5.629,0,0,0,1.159-1.994,9.017,9.017,0,0,0,.353-2.647v-.44Z" transform="translate(-506.363 1069.995)" fill="#002e46"/>
    <path id="Path_7" data-name="Path 7" d="M896.72,569.162v-4.811H884.285v21.856H896.72v-4.814h-6.755v-3.769h6.375v-4.811h-6.375v-3.652Z" transform="translate(-393.535 1002.481)" fill="#00ab57"/>
    <path id="Path_8" data-name="Path 8" d="M971.625,564.351v13.361l-10.492-13.361h-5.681v21.856h5.681V572.843l10.492,13.364h5.654V564.351Z" transform="translate(-448.181 1002.481)" fill="#00ab57"/>
    <path id="Path_9" data-name="Path 9" d="M1081.631,569.162v-4.811H1069.2v21.856h12.433v-4.814h-6.752v-3.769h6.375v-4.811h-6.375v-3.652Z" transform="translate(-535.52 1002.481)" fill="#00ab57"/>
    <path id="Path_10" data-name="Path 10" d="M1151.662,577.248a6.049,6.049,0,0,0,3.551-2.1,6.419,6.419,0,0,0,1.2-4.044,7.468,7.468,0,0,0-.451-2.607,6.007,6.007,0,0,0-3.58-3.61,8.656,8.656,0,0,0-3.188-.536h-8.842v21.856h5.683V577.8l5.421,8.407h7.07Zm-1.971-3.824a4.158,4.158,0,0,1-2.58.695h-1.071v-5.392h1.071a4.141,4.141,0,0,1,2.58.695,2.676,2.676,0,0,1,0,4" transform="translate(-590.158 1002.481)" fill="#00ab57"/>
    <path id="Path_11" data-name="Path 11" d="M1220.139,564.351v4.811h4.668v17.045h5.681V569.162h4.668v-4.811Z" transform="translate(-651.419 1002.481)" fill="#0098af"/>
    <path id="Path_12" data-name="Path 12" d="M1309.073,564.351v5.5l5.654-2.076v-3.419Zm0,7.19v4.694q0,.955-.072,1.957a5.184,5.184,0,0,1-.448,1.811,3.141,3.141,0,0,1-1.146,1.318,3.949,3.949,0,0,1-2.188.507,4.033,4.033,0,0,1-2.2-.507A3,3,0,0,1,1301.87,580a5.358,5.358,0,0,1-.432-1.811q-.076-1-.074-1.957v-6.776l-5.681,2.087v5.471q0,5.1,2.347,7.449t7.19,2.347q4.841,0,7.174-2.347t2.334-7.449v-7.553Zm-13.39-7.19v5.5l5.681-2.087v-3.413Z" transform="translate(-709.425 1002.481)" fill="#0098af"/>
    <path id="Path_13" data-name="Path 13" d="M1408.874,577.248a6.049,6.049,0,0,0,3.551-2.1,6.418,6.418,0,0,0,1.2-4.044,7.473,7.473,0,0,0-.451-2.607,5.991,5.991,0,0,0-3.58-3.61,8.658,8.658,0,0,0-3.188-.536h-8.839v21.856h5.681V577.8l5.421,8.407h7.073Zm-1.971-3.824a4.158,4.158,0,0,1-2.58.695h-1.072v-5.392h1.072a4.141,4.141,0,0,1,2.58.695,2.676,2.676,0,0,1,0,4" transform="translate(-787.659 1002.481)" fill="#0098af"/>
    <path id="Path_14" data-name="Path 14" d="M1497.048,574.7l8.667-10.346H1498.7l-6.927,9.014v-9.014h-5.681v21.856h5.681v-9.479l7.391,9.479h7.362Z" transform="translate(-855.63 1002.481)" fill="#0098af"/>
    <path id="Path_15" data-name="Path 15" d="M891.609,687.576v-1.883h-7.325v13.273h7.325v-1.883h-5.323v-4.437h5.166v-1.88h-5.166v-3.19Z" transform="translate(-393.535 909.309)" fill="#002e46"/>
    <path id="Path_16" data-name="Path 16" d="M961.11,682.711v9.224l-9.677-10.125v14.175h2v-9.293l9.677,10.1v-14.08Z" transform="translate(-445.094 912.291)" fill="#002e46"/>
    <path id="Path_17" data-name="Path 17" d="M1048.555,687.576v-1.883h-7.322v13.273h7.322v-1.883h-5.32v-4.437h5.166v-1.88h-5.166v-3.19Z" transform="translate(-514.047 909.309)" fill="#002e46"/>
    <path id="Path_18" data-name="Path 18" d="M1112.865,693.311a3.594,3.594,0,0,0,2.132-1.3,3.774,3.774,0,0,0,.809-2.424,3.636,3.636,0,0,0-1.289-2.907,5.875,5.875,0,0,0-3.8-.989h-2.347v13.273h2v-5.434h.361l3.792,5.434h2.451Zm-2.493-1.522v-4.212h.714q2.768,0,2.769,2.037,0,2.176-2.846,2.175Z" transform="translate(-565.598 909.308)" fill="#002e46"/>
    <path id="Path_19" data-name="Path 19" d="M1173.98,685.693v8.587a5.532,5.532,0,0,1-.361,2.374,1.264,1.264,0,0,1-1.239.679,2.5,2.5,0,0,1-1.368-.491l-.979,1.711a4.49,4.49,0,0,0,2.347.652,3.324,3.324,0,0,0,2.665-1.177,3.456,3.456,0,0,0,.729-1.451,9.052,9.052,0,0,0,.215-2.3v-8.587Z" transform="translate(-612.946 909.309)" fill="#002e46"/>
    <path id="Path_20" data-name="Path 20" d="M1233.653,698.966h2.005V688.385l-2.005.737Zm0-13.273v2.583l2.005-.74v-1.843Z" transform="translate(-661.796 909.309)" fill="#002e46"/>
  </g>
</svg>
