<svg xmlns="http://www.w3.org/2000/svg" viewBox="0 0 249.17 128"><defs><style>.cls-1{fill:#231f20;}.cls-2{fill:#00c2e7;}</style></defs><g id="Layer_2" data-name="Layer 2"><g id="Layer_1-2" data-name="Layer 1"><path class="cls-1" d="M52.51,57.62H60.3V68.16a19,19,0,0,1,7.18-8.34A21.58,21.58,0,0,1,79.57,56.6v8.59q-8.4,0-13.84,4.86T60.3,85.46v22H52.51Z"/><path class="cls-1" d="M86.8,57.64h7.59V87.07q0,13.77,12.47,13.77a13,13,0,0,0,9.88-4.09q3.9-4.09,3.9-11.08v-28h7.58v49.59h-7.58V99.74q-5.19,8.49-15.67,8.49-8.89,0-13.53-5.44T86.8,88.66Z"/><polygon class="cls-1" points="0 37.04 0 44.33 24.21 44.33 24.21 107.2 31.68 107.2 31.68 44.33 55.88 44.33 55.88 37.04 0 37.04"/><polygon class="cls-2" points="136.32 0 99.15 18.22 136.33 36.41 118.12 18.21 136.32 0"/><polygon class="cls-2" points="136.32 0 173.5 18.19 136.33 36.41 154.53 18.2 136.32 0"/><path class="cls-1" d="M227.21,17.56a5.7,5.7,0,0,1-11.39-.11A5.56,5.56,0,0,1,221.5,12a5.67,5.67,0,0,1,5.71,5.54m-.06-7.46v2a8,8,0,0,0-5.68-2.34,7.91,7.91,0,0,0-8,7.79,7.87,7.87,0,0,0,8,7.69,8.1,8.1,0,0,0,5.68-2.34c0,1.29,0,5.87-5.6,5.87a9.06,9.06,0,0,1-5.4-1.75L216,29.63a11.66,11.66,0,0,0,5.53,1.4,8,8,0,0,0,5.79-2.11,7.77,7.77,0,0,0,2.1-5.67V10.1Z"/><path class="cls-1" d="M246.93,17.55a5.7,5.7,0,0,1-11.39-.11A5.56,5.56,0,0,1,241.22,12a5.67,5.67,0,0,1,5.71,5.54m-.06-7.46v2a8,8,0,0,0-5.68-2.34,7.92,7.92,0,0,0-8,7.79,7.87,7.87,0,0,0,8,7.69,8.06,8.06,0,0,0,5.68-2.34c0,1.3,0,5.87-5.6,5.87a9,9,0,0,1-5.4-1.75l-.13,2.62a11.54,11.54,0,0,0,5.53,1.4,8,8,0,0,0,5.79-2.1,7.8,7.8,0,0,0,2.1-5.68V10.09Z"/><polygon class="cls-1" points="177.63 4.68 177.63 6.92 185.07 6.92 185.08 26.25 187.37 26.25 187.37 6.92 194.81 6.91 194.81 4.67 177.63 4.68"/><path class="cls-1" d="M202.39,24.39a6,6,0,0,1-6.07-6.22,6.07,6.07,0,1,1,12.13,0,6,6,0,0,1-6.06,6.23m0-14.63A8.2,8.2,0,0,0,194,18.15a8.39,8.39,0,1,0,16.78,0,8.21,8.21,0,0,0-8.4-8.38"/><path class="cls-2" d="M228.19,56.9a26,26,0,1,0,16.08,10.32l-6.81,3.84a18.18,18.18,0,1,1-10.75-6.55q.58.12,1.14.27l1.35.36-1,5.09,12.69-7.15-9.07-11.41-1.13,5.81-1.51-.36c-.36-.08-.68-.16-1-.22"/><path class="cls-2" d="M182.74,82.77c0,10-8.6,18.12-19.17,18.13s-19.08-8.3-19.08-18.5S153,64.18,163.56,64.18s19.17,8.33,19.18,18.59m-.19-25V64.4a26.92,26.92,0,0,0-19.08-7.85c-14.84,0-26.91,11.74-26.91,26.14s12.09,25.83,26.93,25.82a27,27,0,0,0,19.08-7.86c0,4.37.07,19.73-18.8,19.73a30.18,30.18,0,0,1-18.14-5.89l-.44,8.81a39,39,0,0,0,18.58,4.7c8.1,0,14.83-2.45,19.45-7.07s7.06-11.22,7.06-19.06l0-44.15Z"/></g></g></svg>